<svg xmlns="http://www.w3.org/2000/svg" viewBox="0 0 197.5 197.5"><defs><style>.cls-1{fill:#8db305;}.cls-2{fill:#fff;}</style></defs><title>replay</title><g id="Layer_2" data-name="Layer 2"><g id="Layer_1-2" data-name="Layer 1"><circle class="cls-1" cx="98.75" cy="98.75" r="95.75"/><path class="cls-2" d="M98.75,6A92.75,92.75,0,1,1,6,98.75,92.86,92.86,0,0,1,98.75,6m0-6A98.75,98.75,0,1,0,197.5,98.75,98.75,98.75,0,0,0,98.75,0Z"/><path class="cls-2" d="M133.41,64.1a48.92,48.92,0,0,0-66.49-2.54l-9.49-9.33L55.52,84.48l32.79-2.42L79,73.44a32.15,32.15,0,1,1-12.22,27.88l-.21-2.64H49.75l.18,3A49,49,0,1,0,133.41,64.1Z"/></g></g></svg>