<?xml version="1.0" encoding="UTF-8" standalone="no"?>
<svg
   xmlns:dc="http://purl.org/dc/elements/1.1/"
   xmlns:cc="http://creativecommons.org/ns#"
   xmlns:rdf="http://www.w3.org/1999/02/22-rdf-syntax-ns#"
   xmlns:svg="http://www.w3.org/2000/svg"
   xmlns="http://www.w3.org/2000/svg"
   xmlns:sodipodi="http://sodipodi.sourceforge.net/DTD/sodipodi-0.dtd"
   xmlns:inkscape="http://www.inkscape.org/namespaces/inkscape"
   width="73.422722mm"
   height="19.702705mm"
   viewBox="0 0 73.422722 19.702705"
   version="1.1"
   id="svg8"
   inkscape:version="1.0.1 (1.0.1+r75)"
   sodipodi:docname="logo.svg">
  <defs
     id="defs2" />
  <sodipodi:namedview
     id="base"
     pagecolor="#ffffff"
     bordercolor="#666666"
     borderopacity="1.0"
     inkscape:pageopacity="0.0"
     inkscape:pageshadow="2"
     inkscape:zoom="0.9899495"
     inkscape:cx="99.178664"
     inkscape:cy="314.29353"
     inkscape:document-units="mm"
     inkscape:current-layer="text835"
     inkscape:document-rotation="0"
     showgrid="false"
     fit-margin-top="0"
     fit-margin-left="0"
     fit-margin-right="0"
     fit-margin-bottom="0"
     inkscape:window-width="1237"
     inkscape:window-height="969"
     inkscape:window-x="43"
     inkscape:window-y="27"
     inkscape:window-maximized="1" />
  <metadata
     id="metadata5">
    <rdf:RDF>
      <cc:Work
         rdf:about="">
        <dc:format>image/svg+xml</dc:format>
        <dc:type
           rdf:resource="http://purl.org/dc/dcmitype/StillImage" />
        <dc:title />
      </cc:Work>
    </rdf:RDF>
  </metadata>
  <g
     inkscape:label="Layer 1"
     inkscape:groupmode="layer"
     id="layer1"
     transform="translate(-4.9735585,-13.64678)">
    <g
       aria-label="LOGO"
       id="text835"
       style="font-style:normal;font-variant:normal;font-weight:normal;font-stretch:normal;font-size:5.29167px;line-height:1.25;font-family:Dyuthi;-inkscape-font-specification:'Dyuthi, Normal';font-variant-ligatures:normal;font-variant-caps:normal;font-variant-numeric:normal;font-feature-settings:normal;text-align:start;letter-spacing:0px;word-spacing:0px;writing-mode:lr-tb;text-anchor:start;fill:#000000;fill-opacity:1;stroke:none;stroke-width:0.264583">
      <path
         id="path843"
         style="font-style:normal;font-variant:normal;font-weight:normal;font-stretch:normal;font-family:Arial;-inkscape-font-specification:Arial;fill:#233e66;fill-opacity:1;stroke-width:0.264583"
         sodipodi:type="inkscape:offset"
         inkscape:radius="0"
         inkscape:original="M 56.21875 29.583984 C 55.798601 29.544624 55.358073 29.637774 55.001953 29.837891 C 54.038069 30.423079 53.877192 31.872287 54.492188 32.767578 C 55.21647 33.756556 56.780167 33.679745 57.636719 32.908203 L 57.636719 31.503906 C 57.253686 31.504606 56.871314 31.503287 56.488281 31.503906 C 56.155617 31.443806 55.910736 31.560336 56.033203 31.949219 C 56.404404 31.949228 56.775276 31.949216 57.146484 31.949219 L 57.146484 32.533203 C 56.921484 33.052171 56.04025 33.132968 55.523438 32.962891 C 54.768223 32.743985 54.540455 31.839377 54.685547 31.148438 C 54.733817 30.505388 55.318859 30.012513 55.951172 30.007812 C 56.43972 29.972172 56.921098 30.170555 57.052734 30.681641 C 57.47428 31.078664 57.728345 30.377639 57.314453 30.123047 C 57.039996 29.794354 56.638899 29.623345 56.21875 29.583984 z M 51.578125 29.585938 C 50.594601 29.650178 49.918101 30.654796 49.994141 31.591797 C 49.993681 31.805588 50.025431 32.018173 50.087891 32.222656 C 50.320627 33.22402 51.520054 33.753166 52.449219 33.394531 C 53.424414 33.072845 53.793755 31.893299 53.550781 30.96875 C 53.399156 30.068378 52.460853 29.463876 51.578125 29.585938 z M 59.804688 29.585938 C 58.821162 29.650178 58.144663 30.654795 58.220703 31.591797 C 58.220233 31.805588 58.251993 32.018173 58.314453 32.222656 C 58.54719 33.22402 59.746615 33.753167 60.675781 33.394531 C 61.650976 33.072844 62.02227 31.893299 61.779297 30.96875 C 61.627672 30.068378 60.687414 29.463876 59.804688 29.585938 z M 47.181641 29.648438 L 47.181641 33.435547 C 47.818746 33.435542 48.454688 33.435548 49.091797 33.435547 C 49.425784 33.497187 49.669018 33.377177 49.546875 32.988281 L 47.681641 32.988281 L 47.681641 30.042969 C 47.779981 29.676978 47.516763 29.567335 47.181641 29.648438 z M 52.03125 30.025391 C 52.80018 30.133708 53.170803 30.98357 53.101562 31.685547 C 53.121322 32.376063 52.578504 33.064525 51.863281 33.078125 C 51.068495 33.146035 50.438489 32.356537 50.511719 31.599609 C 50.511799 31.477491 50.51692 31.353746 50.53125 31.232422 C 50.52655 30.477486 51.302557 29.87771 52.03125 30.025391 z M 60.257812 30.025391 C 61.026741 30.133708 61.397365 30.98357 61.328125 31.685547 C 61.347885 32.376063 60.805067 33.064525 60.089844 33.078125 C 59.295058 33.146035 58.665051 32.356537 58.738281 31.599609 C 58.738361 31.477491 58.743482 31.353746 58.757812 31.232422 C 58.753113 30.477485 59.529122 29.87771 60.257812 30.025391 z "
         d="m 56.21875,29.583984 c -0.420149,-0.03936 -0.860677,0.05379 -1.216797,0.253907 -0.963884,0.585188 -1.124761,2.034396 -0.509765,2.929687 0.724282,0.988978 2.287979,0.912167 3.144531,0.140625 v -1.404297 c -0.383033,7e-4 -0.765405,-6.19e-4 -1.148438,0 -0.332664,-0.0601 -0.577545,0.05643 -0.455078,0.445313 0.371201,9e-6 0.742073,-3e-6 1.113281,0 v 0.583984 c -0.225,0.518968 -1.106234,0.599765 -1.623046,0.429688 -0.755215,-0.218906 -0.982983,-1.123514 -0.837891,-1.814453 0.04827,-0.64305 0.633312,-1.135925 1.265625,-1.140626 0.488548,-0.03564 0.969926,0.162743 1.101562,0.673829 0.421546,0.397023 0.675611,-0.304002 0.261719,-0.558594 -0.274457,-0.328693 -0.675554,-0.499702 -1.095703,-0.539063 z m -4.640625,0.002 c -0.983524,0.06424 -1.660024,1.068858 -1.583984,2.005859 -4.6e-4,0.213791 0.03129,0.426376 0.09375,0.630859 0.232736,1.001364 1.432163,1.53051 2.361328,1.171875 0.975195,-0.321686 1.344536,-1.501232 1.101562,-2.425781 -0.151625,-0.900372 -1.089928,-1.504874 -1.972656,-1.382812 z m 8.226563,0 c -0.983526,0.06424 -1.660025,1.068857 -1.583985,2.005859 -4.7e-4,0.213791 0.03129,0.426376 0.09375,0.630859 0.232737,1.001364 1.432162,1.530511 2.361328,1.171875 0.975195,-0.321687 1.346489,-1.501232 1.103516,-2.425781 -0.151625,-0.900372 -1.091883,-1.504874 -1.974609,-1.382812 z m -12.623047,0.0625 v 3.787109 c 0.637105,-5e-6 1.273047,10e-7 1.910156,0 0.333987,0.06164 0.577221,-0.05837 0.455078,-0.447266 h -1.865234 v -2.945312 c 0.09834,-0.365991 -0.164878,-0.475634 -0.5,-0.394531 z m 4.849609,0.376953 c 0.76893,0.108317 1.139553,0.958179 1.070312,1.660156 0.01976,0.690516 -0.523058,1.378978 -1.238281,1.392578 -0.794786,0.06791 -1.424792,-0.721588 -1.351562,-1.478516 8e-5,-0.122118 0.0052,-0.245863 0.01953,-0.367187 -0.0047,-0.754936 0.771307,-1.354712 1.5,-1.207031 z m 8.226562,0 c 0.768929,0.108317 1.139553,0.958179 1.070313,1.660156 0.01976,0.690516 -0.523058,1.378978 -1.238281,1.392578 -0.794786,0.06791 -1.424793,-0.721588 -1.351563,-1.478516 8e-5,-0.122118 0.0052,-0.245863 0.01953,-0.367187 -0.0047,-0.754937 0.77131,-1.354712 1.5,-1.207031 z"
         transform="matrix(5.0050194,0,0,5.0050194,-231.17147,-134.35311)" />
    </g>
  </g>
</svg>
